<?xml version="1.0" encoding="UTF-8" standalone="no"?>
<!-- Created with Inkscape (http://www.inkscape.org/) -->

<svg
   xmlns:dc="http://purl.org/dc/elements/1.1/"
   xmlns:cc="http://creativecommons.org/ns#"
   xmlns:rdf="http://www.w3.org/1999/02/22-rdf-syntax-ns#"
   xmlns:svg="http://www.w3.org/2000/svg"
   xmlns="http://www.w3.org/2000/svg"
   xmlns:sodipodi="http://sodipodi.sourceforge.net/DTD/sodipodi-0.dtd"
   xmlns:inkscape="http://www.inkscape.org/namespaces/inkscape"
   version="1.1"
   id="svg2"
   xml:space="preserve"
   width="32"
   height="18.76054"
   viewBox="0 0 32 18.76054"
   sodipodi:docname="logo.svg"
   inkscape:version="0.92.4 (5da689c313, 2019-01-14)"
   inkscape:export-filename="logo.png"
   inkscape:export-xdpi="291"
   inkscape:export-ydpi="291"><metadata
     id="metadata8"><rdf:RDF><cc:Work
         rdf:about=""><dc:format>image/svg+xml</dc:format><dc:type
           rdf:resource="http://purl.org/dc/dcmitype/StillImage" /><dc:title /></cc:Work></rdf:RDF></metadata><defs
     id="defs6"><clipPath
       clipPathUnits="userSpaceOnUse"
       id="clipPath18"><path
         d="M 0,32 H 32 V 0 H 0 Z"
         id="path16"
         inkscape:connector-curvature="0" /></clipPath></defs><sodipodi:namedview
     pagecolor="#ffffff"
     bordercolor="#666666"
     borderopacity="1"
     objecttolerance="10"
     gridtolerance="10"
     guidetolerance="10"
     inkscape:pageopacity="0"
     inkscape:pageshadow="2"
     inkscape:window-width="1920"
     inkscape:window-height="1016"
     id="namedview4"
     showgrid="false"
     inkscape:zoom="11.313709"
     inkscape:cx="-0.51451475"
     inkscape:cy="15.220485"
     inkscape:window-x="0"
     inkscape:window-y="27"
     inkscape:window-maximized="1"
     inkscape:current-layer="g10"
     fit-margin-top="0"
     fit-margin-left="0"
     fit-margin-right="0"
     fit-margin-bottom="0" /><g
     id="g10"
     inkscape:groupmode="layer"
     inkscape:label="logo RdiffBackup-B"
     transform="matrix(1.3333333,0,0,-1.3333333,0,26.324073)"><g
       id="g1421"
       transform="matrix(0.79324441,0,0,0.79324441,-0.69190714,-2.1400138)"><g
         id="g1342"><g
           transform="translate(13.414917,27.064304)"
           id="g1283"><path
             style="fill:#37b34a;fill-opacity:1;fill-rule:nonzero;stroke:none;stroke-width:1.33333325"
             d="m -18.275391,-1.3300781 c -0.384,0 -0.697265,0.3132656 -0.697265,0.6972656 V 2.0488281 21.625 c 0,0.384 0.311312,0.695312 0.695312,0.695312 H -2.9453125 C -2.5613125,22.320312 -2.25,22.009 -2.25,21.625 V 2.0488281 -0.6328125 c 0,-0.384 -0.3093594,-0.6972656 -0.6933594,-0.6972656 z"
             transform="matrix(0.75000002,0,0,-0.75000002,1.686825,-0.47507015)"
             id="path1281"
             inkscape:connector-curvature="0" /></g><g
           id="g1310"
           transform="matrix(-1,0,0,1,0.87157498,27.064304)"
           style="fill:#006fa0;fill-opacity:1"><path
             inkscape:connector-curvature="0"
             id="path1308"
             transform="matrix(0.75000002,0,0,-0.75000002,1.686825,-0.47507015)"
             d="m -10.591775,-1.3300781 -0.002,23.6503901 h 7.6484155 C -2.5613125,22.320312 -2.25,22.009 -2.25,21.625 V 2.0488281 -0.6328125 c 0,-0.384 -0.3093594,-0.6972656 -0.6933594,-0.6972656 z"
             style="fill:#006fa0;fill-opacity:1;fill-rule:nonzero;stroke:none;stroke-width:1.33333325"
             sodipodi:nodetypes="ccsscssc" /></g></g><g
         transform="translate(11.6929,21.8799)"
         id="g72"><path
           inkscape:connector-curvature="0"
           id="path74"
           style="fill:#ffffff;fill-opacity:1;fill-rule:nonzero;stroke:none"
           d="m 0,0 h -9.1 c -0.144,0 -0.261,0.117 -0.261,0.261 v 3.796 c 0,0.144 0.117,0.261 0.261,0.261 H 0 c 0.144,0 0.261,-0.117 0.261,-0.261 V 0.261 C 0.261,0.117 0.144,0 0,0" /></g><path
         inkscape:connector-curvature="0"
         id="path76"
         style="fill:#003058;fill-opacity:1;fill-rule:nonzero;stroke:none"
         d="M 7.022,23.834 H 3.41 v 0.409 h 3.612 z" /><g
         transform="translate(8.7139,24.0386)"
         id="g78"><path
           inkscape:connector-curvature="0"
           id="path80"
           style="fill:#003058;fill-opacity:1;fill-rule:nonzero;stroke:none"
           d="m 0,0 c 0,-0.193 -0.157,-0.35 -0.35,-0.35 -0.193,0 -0.35,0.157 -0.35,0.35 0,0.193 0.157,0.35 0.35,0.35 C -0.157,0.35 0,0.193 0,0" /></g><g
         transform="translate(9.7944,24.0386)"
         id="g82"><path
           inkscape:connector-curvature="0"
           id="path84"
           style="fill:#003058;fill-opacity:1;fill-rule:nonzero;stroke:none"
           d="m 0,0 c 0,-0.193 -0.157,-0.35 -0.35,-0.35 -0.193,0 -0.35,0.157 -0.35,0.35 0,0.193 0.157,0.35 0.35,0.35 C -0.157,0.35 0,0.193 0,0" /></g><g
         transform="translate(10.8755,24.0386)"
         id="g86"><path
           inkscape:connector-curvature="0"
           id="path88"
           style="fill:#003058;fill-opacity:1;fill-rule:nonzero;stroke:none"
           d="m 0,0 c 0,-0.193 -0.157,-0.35 -0.35,-0.35 -0.193,0 -0.35,0.157 -0.35,0.35 0,0.193 0.157,0.35 0.35,0.35 C -0.157,0.35 0,0.193 0,0" /></g><g
         transform="translate(11.6929,16.5581)"
         id="g90"><path
           inkscape:connector-curvature="0"
           id="path92"
           style="fill:#ffffff;fill-opacity:1;fill-rule:nonzero;stroke:none"
           d="m 0,0 h -9.1 c -0.144,0 -0.261,0.117 -0.261,0.261 v 3.796 c 0,0.144 0.117,0.261 0.261,0.261 H 0 c 0.144,0 0.261,-0.117 0.261,-0.261 V 0.261 C 0.261,0.117 0.144,0 0,0" /></g><path
         inkscape:connector-curvature="0"
         id="path94"
         style="fill:#003058;fill-opacity:1;fill-rule:nonzero;stroke:none"
         d="M 7.022,18.513 H 3.41 v 0.409 h 3.612 z" /><g
         transform="translate(8.7139,18.7173)"
         id="g96"><path
           inkscape:connector-curvature="0"
           id="path98"
           style="fill:#003058;fill-opacity:1;fill-rule:nonzero;stroke:none"
           d="m 0,0 c 0,-0.193 -0.157,-0.35 -0.35,-0.35 -0.193,0 -0.35,0.157 -0.35,0.35 0,0.193 0.157,0.35 0.35,0.35 C -0.157,0.35 0,0.193 0,0" /></g><g
         transform="translate(9.7944,18.7173)"
         id="g100"><path
           inkscape:connector-curvature="0"
           id="path102"
           style="fill:#003058;fill-opacity:1;fill-rule:nonzero;stroke:none"
           d="m 0,0 c 0,-0.193 -0.157,-0.35 -0.35,-0.35 -0.193,0 -0.35,0.157 -0.35,0.35 0,0.193 0.157,0.35 0.35,0.35 C -0.157,0.35 0,0.193 0,0" /></g><g
         transform="translate(10.8755,18.7173)"
         id="g104"><path
           inkscape:connector-curvature="0"
           id="path106"
           style="fill:#003058;fill-opacity:1;fill-rule:nonzero;stroke:none"
           d="m 0,0 c 0,-0.193 -0.157,-0.35 -0.35,-0.35 -0.193,0 -0.35,0.157 -0.35,0.35 0,0.193 0.157,0.35 0.35,0.35 C -0.157,0.35 0,0.193 0,0" /></g><g
         transform="translate(11.6929,11.2363)"
         id="g108"><path
           inkscape:connector-curvature="0"
           id="path110"
           style="fill:#ffffff;fill-opacity:1;fill-rule:nonzero;stroke:none"
           d="m 0,0 h -9.1 c -0.144,0 -0.261,0.117 -0.261,0.261 v 3.797 c 0,0.144 0.117,0.26 0.261,0.26 H 0 c 0.144,0 0.261,-0.116 0.261,-0.26 V 0.261 C 0.261,0.117 0.144,0 0,0" /></g><path
         inkscape:connector-curvature="0"
         id="path112"
         style="fill:#003058;fill-opacity:1;fill-rule:nonzero;stroke:none"
         d="M 7.022,13.191 H 3.41 v 0.408 h 3.612 z" /><g
         transform="translate(8.7139,13.3955)"
         id="g114"><path
           inkscape:connector-curvature="0"
           id="path116"
           style="fill:#003058;fill-opacity:1;fill-rule:nonzero;stroke:none"
           d="m 0,0 c 0,-0.193 -0.157,-0.35 -0.35,-0.35 -0.193,0 -0.35,0.157 -0.35,0.35 0,0.193 0.157,0.351 0.35,0.351 C -0.157,0.351 0,0.193 0,0" /></g><g
         transform="translate(9.7944,13.3955)"
         id="g118"><path
           inkscape:connector-curvature="0"
           id="path120"
           style="fill:#003058;fill-opacity:1;fill-rule:nonzero;stroke:none"
           d="m 0,0 c 0,-0.193 -0.157,-0.35 -0.35,-0.35 -0.193,0 -0.35,0.157 -0.35,0.35 0,0.193 0.157,0.351 0.35,0.351 C -0.157,0.351 0,0.193 0,0" /></g><g
         transform="translate(10.8755,13.3955)"
         id="g122"><path
           inkscape:connector-curvature="0"
           id="path124"
           style="fill:#003058;fill-opacity:1;fill-rule:nonzero;stroke:none"
           d="m 0,0 c 0,-0.193 -0.157,-0.35 -0.35,-0.35 -0.193,0 -0.35,0.157 -0.35,0.35 0,0.193 0.157,0.351 0.35,0.351 C -0.157,0.351 0,0.193 0,0" /></g></g><g
       id="g1443"
       transform="matrix(0.79324441,0,0,0.79324441,-0.69190714,-2.1400138)"><g
         transform="matrix(-1,0,0,1,80.458905,-5.3695919)"
         id="g1336"><g
           id="g1326"
           transform="translate(61.87383,32.433896)"><path
             inkscape:connector-curvature="0"
             id="path1324"
             transform="matrix(0.75000002,0,0,-0.75000002,1.686825,-0.47507015)"
             d="m -18.275391,-1.3300781 c -0.384,0 -0.697265,0.3132656 -0.697265,0.6972656 V 2.0488281 21.625 c 0,0.384 0.311312,0.695312 0.695312,0.695312 H -2.9453125 C -2.5613125,22.320312 -2.25,22.009 -2.25,21.625 V 2.0488281 -0.6328125 c 0,-0.384 -0.3093594,-0.6972656 -0.6933594,-0.6972656 z"
             style="fill:#37b34a;fill-opacity:1;fill-rule:nonzero;stroke:none;stroke-width:1.33333325" /></g><g
           style="fill:#006fa0;fill-opacity:1"
           transform="matrix(-1,0,0,1,49.330488,32.433896)"
           id="g1330"><path
             sodipodi:nodetypes="ccsscssc"
             style="fill:#006fa0;fill-opacity:1;fill-rule:nonzero;stroke:none;stroke-width:1.33333325"
             d="m -10.591775,-1.3300781 -0.002,23.6503901 h 7.6484155 C -2.5613125,22.320312 -2.25,22.009 -2.25,21.625 V 2.0488281 -0.6328125 c 0,-0.384 -0.3093594,-0.6972656 -0.6933594,-0.6972656 z"
             transform="matrix(0.75000002,0,0,-0.75000002,1.686825,-0.47507015)"
             id="path1328"
             inkscape:connector-curvature="0" /></g></g><path
         d="m 29.4072,21.8799 h -9.101 c -0.143,0 -0.26,0.117 -0.26,0.261 v 3.796 c 0,0.144 0.117,0.261 0.26,0.261 h 9.101 c 0.145,0 0.261,-0.117 0.261,-0.261 v -3.796 c 0,-0.144 -0.116,-0.261 -0.261,-0.261"
         style="fill:#ffffff;fill-opacity:1;fill-rule:nonzero;stroke:none"
         id="path136"
         inkscape:connector-curvature="0" /><path
         inkscape:connector-curvature="0"
         id="path138"
         style="fill:#003058;fill-opacity:1;fill-rule:nonzero;stroke:none"
         d="m 24.736,23.834 h -3.611 v 0.409 h 3.611 z" /><path
         d="m 26.4287,24.0386 c 0,-0.193 -0.157,-0.35 -0.351,-0.35 -0.193,0 -0.349,0.157 -0.349,0.35 0,0.193 0.156,0.35 0.349,0.35 0.194,0 0.351,-0.157 0.351,-0.35"
         style="fill:#003058;fill-opacity:1;fill-rule:nonzero;stroke:none"
         id="path142"
         inkscape:connector-curvature="0" /><path
         d="m 27.5088,24.0386 c 0,-0.193 -0.156,-0.35 -0.35,-0.35 -0.193,0 -0.35,0.157 -0.35,0.35 0,0.193 0.157,0.35 0.35,0.35 0.194,0 0.35,-0.157 0.35,-0.35"
         style="fill:#003058;fill-opacity:1;fill-rule:nonzero;stroke:none"
         id="path146"
         inkscape:connector-curvature="0" /><path
         d="m 28.5898,24.0386 c 0,-0.193 -0.157,-0.35 -0.351,-0.35 -0.193,0 -0.349,0.157 -0.349,0.35 0,0.193 0.156,0.35 0.349,0.35 0.194,0 0.351,-0.157 0.351,-0.35"
         style="fill:#003058;fill-opacity:1;fill-rule:nonzero;stroke:none"
         id="path150"
         inkscape:connector-curvature="0" /><path
         d="m 29.4072,16.5581 h -9.101 c -0.143,0 -0.26,0.117 -0.26,0.261 v 3.796 c 0,0.144 0.117,0.261 0.26,0.261 h 9.101 c 0.145,0 0.261,-0.117 0.261,-0.261 v -3.796 c 0,-0.144 -0.116,-0.261 -0.261,-0.261"
         style="fill:#ffffff;fill-opacity:1;fill-rule:nonzero;stroke:none"
         id="path154"
         inkscape:connector-curvature="0" /><path
         inkscape:connector-curvature="0"
         id="path156"
         style="fill:#003058;fill-opacity:1;fill-rule:nonzero;stroke:none"
         d="m 24.736,18.513 h -3.611 v 0.409 h 3.611 z" /><path
         d="m 26.4287,18.7173 c 0,-0.193 -0.157,-0.35 -0.351,-0.35 -0.193,0 -0.349,0.157 -0.349,0.35 0,0.193 0.156,0.35 0.349,0.35 0.194,0 0.351,-0.157 0.351,-0.35"
         style="fill:#003058;fill-opacity:1;fill-rule:nonzero;stroke:none"
         id="path160"
         inkscape:connector-curvature="0" /><path
         d="m 27.5088,18.7173 c 0,-0.193 -0.156,-0.35 -0.35,-0.35 -0.193,0 -0.35,0.157 -0.35,0.35 0,0.193 0.157,0.35 0.35,0.35 0.194,0 0.35,-0.157 0.35,-0.35"
         style="fill:#003058;fill-opacity:1;fill-rule:nonzero;stroke:none"
         id="path164"
         inkscape:connector-curvature="0" /><path
         d="m 28.5898,18.7173 c 0,-0.193 -0.157,-0.35 -0.351,-0.35 -0.193,0 -0.349,0.157 -0.349,0.35 0,0.193 0.156,0.35 0.349,0.35 0.194,0 0.351,-0.157 0.351,-0.35"
         style="fill:#003058;fill-opacity:1;fill-rule:nonzero;stroke:none"
         id="path168"
         inkscape:connector-curvature="0" /><path
         d="m 29.4072,11.2363 h -9.101 c -0.143,0 -0.26,0.117 -0.26,0.261 v 3.797 c 0,0.144 0.117,0.26 0.26,0.26 h 9.101 c 0.145,0 0.261,-0.116 0.261,-0.26 v -3.797 c 0,-0.144 -0.116,-0.261 -0.261,-0.261"
         style="fill:#ffffff;fill-opacity:1;fill-rule:nonzero;stroke:none"
         id="path172"
         inkscape:connector-curvature="0" /><path
         inkscape:connector-curvature="0"
         id="path174"
         style="fill:#003058;fill-opacity:1;fill-rule:nonzero;stroke:none"
         d="m 24.736,13.191 h -3.611 v 0.408 h 3.611 z" /><path
         d="m 26.4287,13.3955 c 0,-0.193 -0.157,-0.35 -0.351,-0.35 -0.193,0 -0.349,0.157 -0.349,0.35 0,0.193 0.156,0.351 0.349,0.351 0.194,0 0.351,-0.158 0.351,-0.351"
         style="fill:#003058;fill-opacity:1;fill-rule:nonzero;stroke:none"
         id="path178"
         inkscape:connector-curvature="0" /><path
         d="m 27.5088,13.3955 c 0,-0.193 -0.156,-0.35 -0.35,-0.35 -0.193,0 -0.35,0.157 -0.35,0.35 0,0.193 0.157,0.351 0.35,0.351 0.194,0 0.35,-0.158 0.35,-0.351"
         style="fill:#003058;fill-opacity:1;fill-rule:nonzero;stroke:none"
         id="path182"
         inkscape:connector-curvature="0" /><path
         d="m 28.5898,13.3955 c 0,-0.193 -0.157,-0.35 -0.351,-0.35 -0.193,0 -0.349,0.157 -0.349,0.35 0,0.193 0.156,0.351 0.349,0.351 0.194,0 0.351,-0.158 0.351,-0.351"
         style="fill:#003058;fill-opacity:1;fill-rule:nonzero;stroke:none"
         id="path186"
         inkscape:connector-curvature="0" /></g><g
       id="g1248"
       transform="matrix(0.79324441,0,0,0.79324441,-0.69190714,-2.288909)"><g
         transform="translate(16,22.1846)"
         id="g188"><path
           inkscape:connector-curvature="0"
           id="path190"
           style="fill:#003058;fill-opacity:1;fill-rule:nonzero;stroke:none"
           d="M 0,0 C 1.811,0 3.279,-1.468 3.279,-3.279 3.279,-5.09 1.811,-6.558 0,-6.558 c -1.811,0 -3.279,1.468 -3.279,3.279 C -3.279,-1.468 -1.811,0 0,0" /></g><g
         transform="translate(16.0923,19.7749)"
         id="g192"><path
           inkscape:connector-curvature="0"
           id="path194"
           style="fill:#37b34a;fill-opacity:1;fill-rule:nonzero;stroke:none"
           d="M 0,0 H -2.573 V -1.739 H 0 V -3.153 L 2.389,-0.87 0,1.414 Z" /></g></g><g
       transform="translate(-14.228825,22.46307)"
       id="g1287" /></g></svg>